<svg width="57" height="37" viewBox="0 0 57 37" fill="none" xmlns="http://www.w3.org/2000/svg">
<path d="M56.2578 24.1765C56.2578 25.5144 53.466 26.4063 50.2089 26.8523C48.115 23.0615 43.9273 20.1627 39.0417 18.1559C39.507 17.4869 39.9723 17.041 40.4376 16.372H42.2988C49.5109 16.149 56.2578 20.3857 56.2578 24.1765V24.1765ZM16.242 16.149H14.3808C7.16871 16.149 0.421875 20.3857 0.421875 24.1765C0.421875 25.5144 3.21367 26.4063 6.47076 26.8523C8.56461 23.0615 12.7523 20.1627 17.6379 18.1559L16.242 16.149V16.149ZM28.3398 18.3789C33.4581 18.3789 37.6458 14.3652 37.6458 9.45952C37.6458 4.55387 33.4581 0.540161 28.3398 0.540161C23.2215 0.540161 19.0338 4.55387 19.0338 9.45952C19.0338 14.3652 23.2215 18.3789 28.3398 18.3789ZM28.3398 20.6087C18.8012 20.6087 9.72786 26.4063 9.72786 31.7579C9.72786 36.2176 28.3398 36.2176 28.3398 36.2176C28.3398 36.2176 46.9518 36.2176 46.9518 31.7579C46.9518 26.4063 37.8785 20.6087 28.3398 20.6087ZM41.6008 13.9192H42.2988C46.2538 13.9192 49.2783 11.0204 49.2783 7.22968C49.2783 3.43895 46.2538 0.540161 42.2988 0.540161C41.1355 0.540161 40.205 0.763145 39.2744 1.20911C41.1356 3.43895 42.2988 6.33774 42.2988 9.45952C42.2988 11.0204 42.0661 12.5813 41.6008 13.9192ZM14.3808 13.9192H15.0788C14.6135 12.5813 14.3808 11.0204 14.3808 9.45952C14.3808 6.33774 15.5441 3.43895 17.4053 1.20911C16.4747 0.763145 15.5441 0.540161 14.3808 0.540161C10.4258 0.540161 7.40136 3.43895 7.40136 7.22968C7.40136 11.0204 10.4258 13.9192 14.3808 13.9192Z" fill="white"/>
</svg>
