<svg width="63" height="40" viewBox="0 0 63 40" fill="none" xmlns="http://www.w3.org/2000/svg">
<path d="M54.9588 23.7133C54.9588 25.0272 52.2109 25.9032 49.0049 26.3412C46.944 22.6183 42.8221 19.7714 38.0132 17.8004C38.4712 17.1435 38.9292 16.7055 39.3871 16.0485H41.2191C48.3179 15.8295 54.9588 19.9904 54.9588 23.7133ZM15.5717 15.8295H13.7397C6.64086 15.8295 0 19.9904 0 23.7133C0 25.0272 2.74794 25.9032 5.95387 26.3412C8.01482 22.6183 12.1367 19.7714 16.9456 17.8004L15.5717 15.8295ZM27.4794 18.0194C32.5173 18.0194 36.6392 14.0776 36.6392 9.25972C36.6392 4.44187 32.5173 0.5 27.4794 0.5C22.4415 0.5 18.3196 4.44187 18.3196 9.25972C18.3196 14.0776 22.4415 18.0194 27.4794 18.0194ZM27.4794 20.2094C18.0906 20.2094 9.1598 25.9032 9.1598 31.159C9.1598 35.5389 27.4794 35.5389 27.4794 35.5389C27.4794 35.5389 45.799 35.5389 45.799 31.159C45.799 25.9032 36.8682 20.2094 27.4794 20.2094ZM40.5321 13.6396H41.2191C45.112 13.6396 48.089 10.7927 48.089 7.06979C48.089 3.34691 45.112 0.5 41.2191 0.5C40.0741 0.5 39.1581 0.718993 38.2422 1.15698C40.0741 3.34691 41.2191 6.19382 41.2191 9.25972C41.2191 10.7927 40.9901 12.3256 40.5321 13.6396ZM13.7397 13.6396H14.4267C13.9687 12.3256 13.7397 10.7927 13.7397 9.25972C13.7397 6.19382 14.8847 3.34691 16.7166 1.15698C15.8007 0.718993 14.8847 0.5 13.7397 0.5C9.84679 0.5 6.86985 3.34691 6.86985 7.06979C6.86985 10.7927 9.84679 13.6396 13.7397 13.6396Z" fill="white"/>
<path d="M58.875 20.1431H52.1628V13.8566C52.1628 12.5257 51.0454 11.578 49.8416 11.578H44.9143C43.7104 11.578 42.593 12.5257 42.593 13.8566V20.1431H35.8808C34.6769 20.1431 33.5596 21.0908 33.5596 22.4217V27.0935C33.5596 28.4245 34.6769 29.3722 35.8808 29.3722H42.593V35.6586C42.593 36.9895 43.7104 37.9372 44.9143 37.9372H49.8416C51.0454 37.9372 52.1628 36.9895 52.1628 35.6586V29.3722H58.875C60.0789 29.3722 61.1963 28.4245 61.1963 27.0935V22.4217C61.1963 21.0908 60.0789 20.1431 58.875 20.1431Z" fill="white" stroke="#4197E5" stroke-width="3"/>
</svg>
